<svg width="64" height="64" viewBox="0 0 64 64" fill="none" xmlns="http://www.w3.org/2000/svg">
<rect width="64" height="64" rx="12" fill="#FBFBF9"/>
<path fill-rule="evenodd" clip-rule="evenodd" d="M45.4097 11.7099C49.8534 11.5928 51.9543 23.0817 52.5905 30.1764C54.2776 32.3033 55.232 34.724 55.232 37.2918C55.2319 45.703 44.9926 52.5339 32.3004 52.6402L32 52.6415L31.6996 52.6402C19.0074 52.5339 8.76803 45.703 8.768 37.2918C8.768 34.724 9.72235 32.3033 11.4095 30.1764C12.0457 23.0817 14.1466 11.5928 18.5903 11.7099C22.1719 11.8043 26.352 17.0321 29.2251 21.6345C29.2965 21.7703 29.3643 21.9039 29.4284 22.035C30.2728 21.9735 31.1308 21.9422 32 21.9422C32.8692 21.9422 33.7272 21.9735 34.5716 22.035C34.6357 21.9039 34.7035 21.7703 34.7749 21.6345C37.648 17.0321 41.8281 11.8043 45.4097 11.7099ZM41.6935 30.1832C41.3853 29.3956 40.271 29.3956 39.9629 30.1832L38.9859 32.6799C38.7026 33.4041 38.1297 33.977 37.4055 34.2603L34.9088 35.237C34.1212 35.5452 34.1212 36.6597 34.9088 36.9679L37.3853 37.9369C38.1213 38.2248 38.7004 38.8117 38.9787 39.5513L39.9583 42.1547C40.2604 42.9573 41.396 42.9573 41.698 42.1547L42.6699 39.5717C42.9527 38.8202 43.5458 38.2271 44.2973 37.9443L46.8805 36.9722C47.683 36.6701 47.6831 35.5348 46.8805 35.2327L44.2769 34.2531C43.5373 33.9748 42.9504 33.3957 42.6624 32.6597L41.6935 30.1832Z" fill="#1D1D16"/>
</svg>
