<svg width="342" height="68" viewBox="0 0 342 68" fill="none" xmlns="http://www.w3.org/2000/svg">
<path fill-rule="evenodd" clip-rule="evenodd" d="M274.416 24.7098C275.632 24.7098 276.805 24.8174 277.932 25.032C279.076 25.2288 279.944 25.4072 280.534 25.5682H290.947V28.4676H285.043C285.741 29.2546 286.26 30.0863 286.6 30.9627C286.957 31.8392 287.137 32.752 287.137 33.7C287.137 34.9344 286.805 36.0979 286.144 37.1893C285.482 38.2627 284.613 39.1393 283.54 39.8191C282.449 40.5169 281.169 41.0632 279.702 41.4568C278.235 41.8503 276.643 42.0467 274.926 42.0467H270.551C270.336 42.2077 270.094 42.4673 269.826 42.825C269.576 43.1648 269.45 43.4962 269.45 43.8182C269.45 44.6052 269.764 45.1507 270.39 45.4549C271.016 45.759 272.152 45.9298 273.798 45.9656C275.426 46.0014 277.072 46.0721 278.736 46.1795C280.4 46.2689 281.59 46.3227 282.306 46.3406C283.343 46.3943 284.373 46.6095 285.393 46.9852C286.412 47.3429 287.298 47.8168 288.049 48.407C288.872 49.0332 289.552 49.8391 290.089 50.823C290.625 51.7891 290.894 52.9075 290.894 54.1775C290.894 55.5372 290.562 56.8168 289.9 58.0154C289.256 59.214 288.264 60.2521 286.922 61.1287C285.508 62.0411 283.808 62.7479 281.822 63.2488C279.854 63.7497 277.412 63.9998 274.496 63.9998C269.791 63.9998 266.212 63.4271 263.761 62.282C261.31 61.137 260.848 59.4196 260.848 57.1297C260.848 55.7164 260.746 54.5528 262.07 53.6404C263.394 52.7281 265.452 52.227 268.243 52.1375V51.8162C266.597 51.2616 265.308 50.5275 264.378 49.615C263.466 48.6848 263.01 47.6108 263.01 46.3943C263.01 45.6432 263.188 45.0078 263.546 44.4891C263.922 43.9703 264.396 43.5135 264.969 43.1199C265.47 42.7801 266.078 42.4941 266.794 42.2615C267.509 42.0111 268.109 41.8138 268.592 41.6707V41.3758C266.176 40.4812 264.396 39.3895 263.251 38.1014C262.124 36.8133 261.561 35.2391 261.561 33.3787C261.561 30.7488 262.768 28.6455 265.184 27.0711C267.617 25.4968 270.695 24.7098 274.416 24.7098ZM270.819 52.5945C270.193 53.1312 269.666 53.7664 269.236 54.4998C268.825 55.2332 268.619 56.1186 268.619 57.1561C268.619 57.6033 268.744 58.096 268.994 58.6326C269.245 59.1693 269.638 59.6704 270.175 60.1355C270.801 60.6544 271.499 61.0573 272.269 61.3436C273.038 61.6477 274.201 61.7996 275.758 61.7996C278.066 61.7996 279.828 61.3524 281.045 60.4578C282.261 59.5632 282.869 58.1224 282.869 56.1365C282.869 55.5283 282.699 54.9195 282.359 54.3113C282.019 53.7211 281.259 53.2377 280.078 52.8621C279.434 52.7548 278.37 52.683 276.885 52.6473C275.418 52.6115 273.396 52.5945 270.819 52.5945ZM274.309 26.8035C273.611 26.8035 273.002 26.9734 272.483 27.3133C271.965 27.6353 271.544 28.1091 271.222 28.7352C270.918 29.3434 270.712 30.0597 270.604 30.8826C270.497 31.6876 270.443 32.5201 270.443 33.3787C270.443 35.3286 270.784 36.9301 271.464 38.1824C272.144 39.4347 273.11 40.0613 274.362 40.0613C275.65 40.0612 276.635 39.497 277.314 38.3699C278.012 37.2428 278.36 35.6498 278.36 33.5926C278.36 31.4996 278.03 29.8442 277.368 28.6277C276.706 27.4114 275.686 26.8036 274.309 26.8035Z" fill="black"/>
<path fill-rule="evenodd" clip-rule="evenodd" d="M56.4258 4.00078C62.7837 3.83323 65.79 20.2814 66.7002 30.4383C69.114 33.4831 70.4794 36.9487 70.4795 40.6248C70.4794 52.6663 55.8293 62.4461 37.6699 62.5984L37.2393 62.6004L36.8096 62.5984C18.6501 62.4462 4.00005 52.6664 4 40.6248C4.00012 36.9487 5.36547 33.4831 7.7793 30.4383C8.68952 20.2814 11.6958 3.83323 18.0537 4.00078C23.1781 4.13609 29.1589 11.6208 33.2695 18.2098C33.3716 18.4041 33.4689 18.5954 33.5605 18.783C34.7685 18.6951 35.9959 18.6502 37.2393 18.6502C38.4828 18.6502 39.7108 18.6951 40.9189 18.783C41.0106 18.5954 41.1079 18.4042 41.21 18.2098C45.3206 11.6208 51.3014 4.13592 56.4258 4.00078ZM51.1084 30.448C50.6673 29.321 49.0738 29.321 48.6328 30.448L47.2354 34.0223C46.83 35.059 46.0097 35.8793 44.9736 36.285L41.4014 37.6834C40.2747 38.1245 40.2748 39.7196 41.4014 40.1609L44.9453 41.5486C45.998 41.9609 46.8264 42.8015 47.2246 43.8602L48.626 47.5867C49.0581 48.7358 50.6831 48.7358 51.1152 47.5867L52.5059 43.8895C52.9104 42.8137 53.7589 41.9643 54.834 41.5594L58.5303 40.1678C59.6784 39.7353 59.6784 38.11 58.5303 37.6775L54.8047 36.2752C53.7466 35.8767 52.9071 35.0474 52.4951 33.9939L51.1084 30.448Z" fill="black"/>
<path fill-rule="evenodd" clip-rule="evenodd" d="M165.127 24.6834C167.632 24.6834 169.69 24.9872 171.3 25.5955C172.91 26.2038 174.243 27.0445 175.299 28.118C176.319 29.1377 177.061 30.3456 177.526 31.741C177.992 33.1185 178.224 34.5681 178.224 36.0887V37.8338H160.082C160.082 41.5013 160.789 44.2925 162.202 46.2068C163.616 48.1211 165.861 49.0779 168.938 49.0779C170.62 49.0779 172.132 48.6221 173.474 47.7098C174.815 46.7794 175.961 45.6075 176.909 44.1941L178.948 45.6697C178.322 46.6895 177.562 47.6557 176.667 48.5682C175.79 49.4627 174.788 50.2327 173.661 50.8768C172.463 51.5565 171.246 52.0662 170.012 52.4061C168.795 52.7639 167.39 52.9432 165.798 52.9432C163.15 52.9431 160.86 52.5676 158.928 51.8162C157.013 51.0648 155.43 50.0533 154.178 48.783C152.925 47.5128 151.986 46.019 151.359 44.3016C150.751 42.5663 150.447 40.6873 150.447 38.6658C150.447 36.841 150.779 35.0962 151.44 33.4324C152.12 31.7507 153.077 30.256 154.312 28.95C155.528 27.6799 157.058 26.6512 158.9 25.8641C160.761 25.0769 162.837 24.6834 165.127 24.6834ZM164.725 26.8572C163.347 26.8572 162.247 27.5547 161.424 28.95C160.601 30.3455 160.154 32.5554 160.082 35.5789L168.696 35.4715C168.696 34.3981 168.642 33.2977 168.535 32.1707C168.428 31.0436 168.24 30.1217 167.972 29.4061C167.668 28.5655 167.247 27.9301 166.711 27.5008C166.192 27.0715 165.53 26.8572 164.725 26.8572Z" fill="black"/>
<path fill-rule="evenodd" clip-rule="evenodd" d="M197.058 24.6834C199.562 24.6834 201.764 25.0315 203.66 25.7293C205.574 26.4091 207.212 27.3755 208.571 28.6277C209.895 29.8622 210.906 31.3389 211.604 33.0564C212.301 34.774 212.65 36.6347 212.65 38.6385C212.65 40.6243 212.301 42.503 211.604 44.2742C210.924 46.0275 209.922 47.5306 208.598 48.783C207.184 50.1248 205.493 51.1533 203.525 51.8689C201.575 52.5846 199.339 52.9432 196.816 52.9432C194.634 52.9432 192.621 52.6298 190.778 52.0037C188.953 51.3775 187.333 50.4378 185.92 49.1854C184.56 47.9867 183.487 46.5107 182.7 44.7576C181.913 42.9864 181.519 41.0087 181.519 38.826C181.519 36.6793 181.859 34.7739 182.539 33.1102C183.237 31.4284 184.275 29.9338 185.652 28.6277C186.976 27.3756 188.604 26.4091 190.536 25.7293C192.486 25.0316 194.66 24.6834 197.058 24.6834ZM197.111 26.8572C195.841 26.8573 194.821 27.2055 194.052 27.9031C193.3 28.6008 192.719 29.5049 192.308 30.6141C191.932 31.6338 191.672 32.8332 191.529 34.2107C191.386 35.5703 191.314 36.9926 191.314 38.4773C191.314 40.4273 191.378 42.0467 191.503 43.3348C191.628 44.6049 191.932 45.8846 192.415 47.1727C192.827 48.2819 193.417 49.1585 194.187 49.8025C194.956 50.4466 195.931 50.7693 197.111 50.7693C198.185 50.7693 199.107 50.474 199.876 49.8836C200.645 49.2753 201.254 48.3892 201.701 47.2264C202.095 46.2246 202.381 45.0079 202.56 43.577C202.756 42.1457 202.854 40.4812 202.854 38.5848C202.854 37.3324 202.765 35.9009 202.586 34.2908C202.407 32.6809 202.139 31.4106 201.781 30.4803C201.352 29.3533 200.753 28.4671 199.983 27.823C199.232 27.179 198.274 26.8572 197.111 26.8572Z" fill="black"/>
<path d="M326.677 24.6834C329.969 24.6834 332.573 25.309 334.487 26.5613C336.401 27.7957 337.358 29.469 337.358 31.5799C337.358 32.8679 337.019 33.906 336.339 34.6932C335.659 35.4804 334.487 35.8738 332.823 35.8738C331.481 35.8738 330.354 35.5521 329.441 34.908C328.547 34.264 328.1 33.4231 328.1 32.3855C328.1 31.5089 328.243 30.6407 328.529 29.782C328.815 28.9235 328.985 28.2703 329.039 27.823C328.842 27.5011 328.591 27.2594 328.287 27.0984C327.983 26.9197 327.509 26.8299 326.865 26.8299C326.06 26.8299 325.326 27.0177 324.664 27.3934C324.002 27.7691 323.385 28.4316 322.812 29.3797C322.258 30.2741 321.811 31.4729 321.471 32.9754C321.149 34.4782 320.987 36.2862 320.987 38.3973C320.987 41.5817 321.73 44.1493 323.215 46.0994C324.718 48.0496 326.508 49.0242 328.583 49.0242C330.569 49.0242 332.143 48.5862 333.306 47.7098C334.486 46.8152 335.534 45.5537 336.446 43.9256L338.459 45.3211C337.904 46.4124 337.242 47.4145 336.473 48.327C335.703 49.2214 334.782 50.0179 333.709 50.7156C332.582 51.4492 331.436 52.004 330.273 52.3797C329.111 52.7554 327.759 52.9432 326.221 52.9432C323.734 52.9431 321.533 52.5846 319.619 51.8689C317.723 51.1354 316.156 50.1428 314.922 48.8904C313.688 47.6202 312.766 46.117 312.158 44.3816C311.55 42.6462 311.246 40.7581 311.246 38.7186C311.246 36.8581 311.612 35.0867 312.346 33.4051C313.097 31.7234 314.109 30.2476 315.379 28.9773C316.685 27.6713 318.304 26.6334 320.236 25.8641C322.186 25.0769 324.333 24.6834 326.677 24.6834Z" fill="black"/>
<path d="M228.75 27.4207C228.142 27.4744 227.417 27.6169 226.576 27.8494C225.736 28.0819 225.315 28.3955 225.314 28.7889C225.314 28.9677 225.332 29.1292 225.368 29.2723C225.422 29.3975 225.503 29.6392 225.61 29.9969C226.093 31.3923 226.755 33.1995 227.596 35.4178C228.437 37.6183 229.421 40.186 230.548 43.1199L236.506 25.4617H241.82L248.609 43.7107C249.647 40.9558 250.443 38.791 250.998 37.2166C251.571 35.6243 252.287 33.5748 253.146 31.0701C253.271 30.6946 253.342 30.3631 253.36 30.077C253.396 29.7734 253.405 29.5766 253.387 29.4871C253.387 29.1652 253.225 28.8782 252.903 28.6277C252.581 28.3596 252.197 28.1451 251.75 27.9842C251.303 27.8232 250.864 27.6977 250.435 27.6082C250.023 27.5188 249.674 27.4565 249.388 27.4207V25.4617H260.472V27.4207C259.649 27.546 258.888 27.8234 258.19 28.2527C257.493 28.6643 256.903 29.443 256.42 30.5877C255.168 33.6467 254.165 36.1155 253.414 37.9939C252.663 39.8725 251.607 42.5835 250.247 46.1258C249.961 46.8593 249.612 47.8709 249.2 49.159C248.807 50.447 248.493 51.503 248.261 52.326H243.027L236.265 34.076L229.931 52.326H224.751C222.944 47.4417 221.522 43.6571 220.484 40.9734C219.447 38.2718 218.06 34.7109 216.324 30.2918C216.002 29.4511 215.447 28.7894 214.66 28.3064C213.891 27.8234 213.094 27.528 212.271 27.4207V25.4617H228.75V27.4207Z" fill="black"/>
<path d="M122.732 39.1482L130.649 18.7254C130.918 17.9741 131.177 17.0792 131.428 16.0418C131.678 15.0043 131.813 14.3238 131.831 14.0018H148.712V16.0945C148.139 16.1303 147.539 16.202 146.913 16.3094C146.287 16.4167 145.688 16.5602 145.115 16.7391C144.418 16.9716 143.952 17.3388 143.72 17.8396C143.505 18.3405 143.397 18.8956 143.397 19.5037V46.4754C143.397 47.1192 143.505 47.6649 143.72 48.1121C143.952 48.5415 144.418 48.917 145.115 49.2391C145.473 49.4001 146.055 49.552 146.859 49.6951C147.682 49.8382 148.318 49.9373 148.766 49.991V52.0838H128.127V49.991C128.735 49.9373 129.478 49.8477 130.354 49.7225C131.249 49.5972 131.858 49.4632 132.18 49.3201C132.842 49.0518 133.315 48.6846 133.602 48.2195C133.888 47.7544 134.031 47.1636 134.031 46.448V18.0008L120.935 51.4666H117.553C117.392 50.876 116.99 49.7038 116.346 47.951C115.72 46.1979 115.209 44.7936 114.815 43.7381L105.181 17.5711V40.7322C105.181 42.9505 105.324 44.6416 105.61 45.8045C105.914 46.9493 106.398 47.7902 107.06 48.327C107.507 48.7027 108.303 49.0603 109.448 49.4002C110.611 49.7401 111.425 49.9373 111.891 49.991V52.0838H95.5195V49.991C95.9668 49.9373 96.6915 49.8213 97.6934 49.6424C98.7132 49.4456 99.5454 49.1144 100.189 48.6492C100.905 48.1482 101.388 47.3066 101.639 46.1258C101.889 44.9271 102.015 43.2274 102.015 41.0271V22.16C102.015 21.0152 101.871 20.0666 101.585 19.3152C101.299 18.5463 100.869 17.9382 100.297 17.491C99.5812 16.9364 98.8471 16.5778 98.0957 16.4168C97.3444 16.2558 96.5837 16.1482 95.8145 16.0945V14.0018H113.34L122.732 39.1482Z" fill="black"/>
<path d="M305.493 46.8504C305.493 47.4765 305.628 48.0135 305.896 48.4607C306.165 48.8901 306.549 49.2128 307.05 49.4275C307.408 49.5885 307.801 49.731 308.23 49.8563C308.66 49.9814 309.107 50.0711 309.572 50.1248V52.0838H292.611V50.1248C293.077 50.089 293.533 50.0447 293.98 49.991C294.427 49.9374 294.812 49.8476 295.134 49.7225C295.706 49.5078 296.109 49.2038 296.342 48.8104C296.574 48.3989 296.69 47.8617 296.69 47.2V26.9705C298.95 29.6643 303.289 29.6285 305.493 26.8631V46.8504Z" fill="black"/>
<path d="M299.93 6.80938C300.351 5.73252 301.874 5.73252 302.295 6.80938L303.618 10.1951C304.012 11.2013 304.815 11.9932 305.825 12.3738L309.383 13.7137C310.48 14.1267 310.479 15.6795 309.383 16.0926L305.853 17.4217C304.826 17.8085 304.015 18.6199 303.629 19.6473L302.301 23.1785C301.888 24.2756 300.336 24.2758 299.923 23.1785L298.585 19.6189C298.205 18.6076 297.413 17.8047 296.407 17.4109L293.022 16.0867C291.947 15.6652 291.947 14.1412 293.022 13.7195L296.435 12.3846C297.424 11.9972 298.207 11.2134 298.595 10.2234L299.93 6.80938Z" fill="black"/>
</svg>
